<?xml version="1.0" encoding="UTF-8"?>
<svg width="228px" height="50px" viewBox="0 0 228 50" version="1.1" xmlns="http://www.w3.org/2000/svg" xmlns:xlink="http://www.w3.org/1999/xlink">
    <!-- Generator: Sketch 47.1 (45422) - http://www.bohemiancoding.com/sketch -->
    <title>Chihiro_PSStore_logo</title>
    <desc>Created with Sketch.</desc>
    <defs>
        <linearGradient x1="9.44570273%" y1="-3.45047418%" x2="89.1301314%" y2="95.5165437%" id="linearGradient-1">
            <stop stop-color="#00C0F3" offset="0%"></stop>
            <stop stop-color="#007DC5" offset="100%"></stop>
        </linearGradient>
    </defs>
    <g id="Page-1" stroke="none" stroke-width="1" fill="none" fill-rule="evenodd">
        <g id="Chihiro_PSStore_logo">
            <g id="Page-1" transform="translate(10.000000, 1.000000)">
                <g id="Group" fill-rule="nonzero">
                    <path d="M15.7835514,1.89987192 C16.0758394,1.86333593 16.3681273,1.89987192 16.6604153,2.04601592 C14.7240074,4.71314381 14.3586474,9.71857561 14.3221114,11.6184475 L15.6739434,11.6184475 C15.7470154,9.13399963 16.2219833,4.85928781 17.7564953,2.84980789 C19.5467592,4.71314381 20.6793752,8.80517565 21.0447352,11.6184475 L22.3965671,11.6184475 C22.0312071,8.54942366 20.7889832,4.12856783 18.7429672,1.93640792 C19.0352552,1.79026393 19.3640792,1.68065593 19.6929032,1.68065593 C20.3140152,1.68065593 20.8985912,1.97294392 21.4466311,2.5940559 C23.4195751,4.74967981 24.296439,9.75511161 24.479119,11.6184475 L25.830951,11.6184475 C25.684807,9.53589562 24.807943,4.82275181 22.8715351,2.22869591 C21.9581351,0.98647196 20.8620552,0.328823987 19.6563672,0.328823987 C18.8525752,0.328823987 18.1949273,0.584575977 17.6103513,1.02300796 C16.9527033,0.657647974 16.2950553,0.474967981 15.6008714,0.548039978 C12.0203435,0.913399963 11.0704076,6.50340774 10.9607996,11.5819115 L12.3126315,11.5819115 C12.4587755,5.62654377 13.7009995,2.11908792 15.7835514,1.89987192 Z" id="Shape" fill="#F58357"></path>
                    <path d="M34.7457346,11.5453755 C34.7457346,11.3626955 34.5995906,11.2530875 34.3803746,11.2530875 L30.7998468,10.7415836 C30.7633108,10.7415836 30.7267748,10.7415836 30.6902388,10.7415836 C29.3018708,10.7415836 24.296439,10.7415836 16.4411993,10.7415836 C8.58595966,10.7415836 3.54399186,10.8511916 2.15562391,10.8511916 C1.93640792,10.8511916 1.75372793,10.9973356 1.75372793,11.2165516 C1.68065593,12.5683835 1.35183195,17.9026393 0.913399963,26.086703 C0.438431982,34.7457346 0.182679993,39.4588784 0.109607996,40.7376384 C0.109607996,40.9203184 0.25575199,41.0664624 0.438431982,41.1029984 L14.6509354,43.2586223 L28.6807589,45.4142462 C28.7903668,45.4142462 28.8999748,45.4142462 29.0095828,45.3411742 L29.0095828,45.3411742 L35.9514226,40.8837824 C36.1341026,40.7741744 36.2437105,40.5549584 36.2437105,40.3357424 L34.7457346,11.5453755 Z" id="Shape" fill="url(#linearGradient-1)"></path>
                    <g transform="translate(3.653600, 17.171919)" id="Shape" fill="#FFFFFF">
                        <g transform="translate(16.075839, 17.171919)">
                            <polygon points="0.730719971 0.438431982 0.219215991 0.438431982 0.219215991 0.25575199 1.38836794 0.25575199 1.38836794 0.438431982 0.913399963 0.438431982 0.913399963 1.79026393 0.730719971 1.79026393"></polygon>
                            <polygon points="2.22869591 1.82679993 1.82679993 0.584575977 1.82679993 1.82679993 1.64411993 1.82679993 1.64411993 0.292287988 1.93640792 0.292287988 2.3748399 1.60758394 2.81327189 0.292287988 3.06902388 0.292287988 3.06902388 1.82679993 2.88634388 1.82679993 2.88634388 0.584575977 2.4844479 1.82679993"></polygon>
                        </g>
                        <g>
                            <path d="M8.73210365,0.25575199 L8.73210365,16.8430953 L12.4587755,18.0487833 L12.4587755,4.12856783 C12.4587755,3.47091986 12.7510635,3.03248788 13.2260315,3.17863187 C13.8471434,3.36131187 13.9567514,3.94588784 13.9567514,4.60353582 L13.9567514,10.1570076 C16.2950553,11.2896235 18.1218553,10.1570076 18.1218553,7.16105571 C18.1218553,4.09203184 17.0623113,2.74019989 13.8836794,1.64411993 C12.6049195,1.27875995 10.3031516,0.548039978 8.73210365,0.25575199"></path>
                            <path d="M13.1529595,15.6374074 L19.1448632,13.4817835 C19.8390472,13.2260315 19.9121192,12.8972075 19.3640792,12.7145275 C18.8160392,12.5318475 17.8295673,12.5683835 17.1353833,12.8241355 L13.1529595,14.2490394 L13.1529595,11.9838075 L13.3721755,11.9107355 C13.3721755,11.9107355 14.5413274,11.5088395 16.1489114,11.3261595 C17.7564953,11.1434796 19.7659752,11.3626955 21.3370231,11.9472715 C23.0907511,12.4953115 23.3099671,13.3356395 22.8349991,13.9202154 C22.3965671,14.4682554 21.3004871,14.9066874 21.3004871,14.9066874 L13.1529595,17.8661033 L13.1529595,15.6374074 L13.1529595,15.6374074 Z"></path>
                            <path d="M1.89987192,15.3816554 C0.109607996,14.8701514 -0.219215991,13.8106074 0.621111975,13.1894955 C1.38836794,12.6049195 2.66712789,12.2030235 2.66712789,12.2030235 L8.00138368,10.2666156 L8.00138368,12.4587755 L4.16510383,13.8836794 C3.47091986,14.1394314 3.39784786,14.4682554 3.94588784,14.6509354 C4.49392782,14.8336154 5.48039978,14.7970794 6.17458375,14.5413274 L8.03791968,13.8836794 L8.03791968,15.8200874 C7.92831168,15.8566234 7.78216769,15.8566234 7.67255969,15.8931594 C5.77268777,16.1854474 3.83627985,16.0393034 1.89987192,15.3816554"></path>
                        </g>
                    </g>
                </g>
                <path d="M55.9669895,16.9090351 L49.0831298,16.905 C49.0548842,16.905 49.0322877,16.9275965 49.0322877,16.9550351 L49.0322877,33.0558421 C49.0322877,33.0808596 49.0548842,33.1042632 49.0831298,33.1042632 L51.8729895,33.1042632 C51.898814,33.1042632 51.9214105,33.0808596 51.9214105,33.0558421 L51.9230246,18.7030351 C51.9230246,18.6925439 51.9327088,18.6796316 51.941586,18.6796316 L55.1301123,18.6739825 C56.2930246,18.6739825 56.9329895,19.8449649 56.9329895,21.9730702 C56.9329895,24.1003684 56.2930246,25.2713509 55.1284982,25.2713509 L53.2134456,25.2713509 C53.186007,25.2713509 53.1634105,25.2947544 53.1634105,25.3205789 L53.1634105,26.9894912 C53.1634105,27.0185439 53.186007,27.0403333 53.2134456,27.0403333 L55.9669895,27.0403333 C56.9313754,27.0403333 57.8812351,26.5948596 58.5728491,25.8168947 C59.3887439,24.9001228 59.8204982,23.575 59.8204982,21.9859825 C59.8204982,18.9031754 58.3081474,16.9090351 55.9669895,16.9090351" id="Fill-3" fill="#FFFFFF"></path>
                <path d="M64.3756281,16.9053228 L61.5865754,16.9053228 C61.5599439,16.9053228 61.5381544,16.9279193 61.5381544,16.9553579 L61.5381544,33.0553579 C61.5381544,33.0811825 61.5599439,33.104586 61.5865754,33.104586 L64.3756281,33.104586 C64.4030667,33.104586 64.4248561,33.0811825 64.4248561,33.0553579 L64.4248561,16.9553579 C64.4248561,16.9279193 64.4030667,16.9053228 64.3756281,16.9053228" id="Fill-5" fill="#FFFFFF"></path>
                <path d="M76.5536842,20.8229088 C76.5536842,20.7954702 76.5318947,20.7744877 76.5036491,20.7744877 L71.5251579,20.7744877 C67.0728421,20.7744877 66.5030877,24.054207 66.5030877,26.9263825 L66.5038947,29.4119965 C66.5038947,31.552207 67.8338596,33.1041018 69.6674035,33.1041018 L72.3765614,33.1041018 C72.405614,33.1041018 72.4265965,33.0806982 72.4265965,33.0556807 L72.4265965,31.3859614 C72.4265965,31.3561018 72.405614,31.3343123 72.3765614,31.3343123 L70.4397193,31.3375404 C69.9902105,31.3278561 69.3914035,31.138207 69.3914035,29.6081018 L69.3914035,26.9255754 C69.3897895,25.1396456 69.5584561,24.0033649 69.9240351,23.3529088 C70.3243158,22.6346632 70.9602456,22.5410491 71.5251579,22.5410491 L73.6524561,22.5410491 C73.6629474,22.5410491 73.6710175,22.5523474 73.6710175,22.5644526 L73.6669825,33.0556807 C73.6669825,33.0806982 73.6895789,33.1041018 73.7178246,33.1041018 L76.5060702,33.1041018 C76.5318947,33.1041018 76.5552982,33.0806982 76.5552982,33.0556807 L76.5536842,20.8995754 L76.5536842,20.8229088 Z" id="Fill-7" fill="#FFFFFF"></path>
                <path d="M96.6320386,23.6481158 L95.2576877,23.5432035 C94.2279333,23.4528175 93.4596526,22.8822561 93.4596526,21.1891333 C93.4596526,19.2135544 94.3506,18.6801158 95.5272316,18.6801158 L99.3298982,18.6801158 C99.3557228,18.6801158 99.3767053,18.6575193 99.3767053,18.6300807 L99.3767053,16.9547123 C99.3767053,16.9280807 99.3557228,16.9054842 99.3298982,16.9054842 L99.2516175,16.9054842 L99.2475825,16.9054842 L95.131793,16.9070982 C92.5372316,16.9070982 90.6851263,18.4315544 90.6851263,21.4732035 L90.6851263,21.6007123 C90.6851263,24.0072386 92.1635825,25.7366772 94.3627053,25.9021158 L95.7346351,26.005414 C96.7748807,26.0845018 97.4188807,27.014186 97.4188807,28.4321158 L97.4188807,28.8332035 C97.4188807,29.7217298 97.201793,31.3349579 95.3004596,31.3349579 L91.4283895,31.3349579 L91.3525298,31.3349579 C91.3258982,31.3349579 91.3041088,31.3591684 91.3041088,31.386607 L91.3041088,33.0555193 C91.3041088,33.0813439 91.3258982,33.1047474 91.3525298,33.1047474 L96.2567754,33.1047474 C97.7691263,33.1047474 100.305582,32.491414 100.305582,28.3715895 C100.305582,26.8907123 99.9593719,25.7084316 99.2766351,24.8634842 C98.6875123,24.1371684 97.8231965,23.7385018 96.6320386,23.6481158" id="Fill-9" fill="#FFFFFF"></path>
                <path d="M119.497912,20.8229088 C119.497912,20.7954702 119.474509,20.7744877 119.448684,20.7744877 L114.469386,20.7744877 C110.01707,20.7744877 109.443281,24.054207 109.443281,26.9263825 L109.446509,29.4119965 C109.446509,31.552207 110.778088,33.1041018 112.608404,33.1041018 L115.318368,33.1041018 C115.347421,33.1041018 115.370018,33.0806982 115.370018,33.0556807 L115.370018,31.3859614 C115.370018,31.3561018 115.347421,31.3343123 115.318368,31.3343123 L113.382333,31.3375404 C112.929596,31.3278561 112.334825,31.138207 112.333211,29.6081018 L112.333211,26.9255754 C112.332404,25.1396456 112.500263,24.0033649 112.867456,23.3529088 C113.268544,22.6346632 113.901246,22.5410491 114.466965,22.5410491 L116.594263,22.5410491 C116.603947,22.5410491 116.613632,22.5523474 116.613632,22.5644526 L116.610404,33.0556807 C116.610404,33.0806982 116.633,33.1041018 116.658825,33.1041018 L119.448684,33.1041018 C119.474509,33.1041018 119.497912,33.0806982 119.497912,33.0556807 L119.497912,20.8229088 Z" id="Fill-11" fill="#FFFFFF"></path>
                <path d="M108.277867,20.7746491 L105.259621,20.7746491 C105.249937,20.7746491 105.242674,20.7641579 105.242674,20.7544737 L105.238639,20.7439825 L105.242674,18.7288596 C105.242674,18.7022281 105.21927,18.6796316 105.192639,18.6796316 L102.402779,18.6796316 C102.37534,18.6796316 102.351937,18.7022281 102.351937,18.7288596 L102.351937,29.415386 C102.351937,31.5539825 103.683516,33.1042632 105.51706,33.1042632 L107.516042,33.1042632 C107.542674,33.1042632 107.567691,33.0808596 107.567691,33.0558421 L107.567691,31.3861228 C107.567691,31.3586842 107.542674,31.3344737 107.516042,31.3344737 L106.286954,31.3344737 C105.974639,31.3296316 105.238639,31.3134912 105.238639,29.739 L105.238639,22.5525088 C105.238639,22.5436316 105.24913,22.5371754 105.258814,22.5371754 C106.182042,22.5404035 108.277867,22.5371754 108.277867,22.5371754 C108.304498,22.5371754 108.327095,22.5121579 108.327095,22.4863333 L108.327095,20.8230702 C108.327095,20.7956316 108.304498,20.7746491 108.277867,20.7746491" id="Fill-13" fill="#FFFFFF"></path>
                <path d="M127.76266,20.7746491 L124.7428,20.7746491 C124.733923,20.7746491 124.725046,20.7641579 124.725046,20.7544737 L124.724239,20.7439825 L124.725046,18.7288596 C124.725046,18.7022281 124.702449,18.6796316 124.677432,18.6796316 L121.887572,18.6796316 C121.859326,18.6796316 121.834309,18.7022281 121.834309,18.7288596 L121.834309,29.415386 C121.834309,31.5539825 123.167502,33.1042632 125.000239,33.1042632 L127.000835,33.1042632 C127.029081,33.1042632 127.050063,33.0808596 127.050063,33.0558421 L127.050063,31.3861228 C127.050063,31.3586842 127.029081,31.3344737 127.000835,31.3344737 L125.771747,31.3344737 C125.457818,31.3296316 124.724239,31.3134912 124.724239,29.739 L124.724239,22.5525088 C124.724239,22.5436316 124.732309,22.5371754 124.741993,22.5371754 C125.665221,22.5404035 127.76266,22.5371754 127.76266,22.5371754 C127.790098,22.5371754 127.811888,22.5121579 127.811888,22.4863333 L127.811888,20.8230702 C127.811888,20.7956316 127.790098,20.7746491 127.76266,20.7746491" id="Fill-15" fill="#FFFFFF"></path>
                <path d="M132.377428,20.7746491 L129.586761,20.7746491 C129.560937,20.7746491 129.537533,20.7956316 129.537533,20.8230702 L129.537533,33.0558421 C129.537533,33.0808596 129.560937,33.1042632 129.586761,33.1042632 L132.377428,33.1042632 C132.403253,33.1042632 132.425042,33.0808596 132.425042,33.0558421 L132.425042,20.8230702 C132.425042,20.7956316 132.403253,20.7746491 132.377428,20.7746491" id="Fill-17" fill="#FFFFFF"></path>
                <path d="M132.377428,16.9053228 L129.586761,16.9053228 C129.560937,16.9053228 129.537533,16.9279193 129.537533,16.9553579 L129.537533,19.2900596 C129.537533,19.3174982 129.560937,19.3400947 129.586761,19.3400947 L132.377428,19.3400947 C132.403253,19.3400947 132.425042,19.3174982 132.425042,19.2900596 L132.425042,16.9553579 C132.425042,16.9279193 132.403253,16.9053228 132.377428,16.9053228" id="Fill-19" fill="#FFFFFF"></path>
                <path d="M151.668375,20.7746491 L146.686656,20.7746491 C146.660832,20.7746491 146.638235,20.7956316 146.638235,20.8230702 L146.635814,33.0558421 C146.635814,33.0808596 146.660832,33.1042632 146.686656,33.1042632 L149.474902,33.1042632 C149.503147,33.1042632 149.525744,33.0808596 149.525744,33.0558421 L149.519288,22.5597719 C149.519288,22.5500877 149.529779,22.5404035 149.541077,22.5404035 L151.666761,22.5404035 C152.233288,22.5404035 152.868411,22.6299825 153.270305,23.2909298 C153.633463,23.8945789 153.805358,24.9453158 153.805358,26.6037368 C153.806972,26.6763684 153.800516,33.0558421 153.800516,33.0558421 C153.800516,33.0808596 153.824726,33.1042632 153.852972,33.1042632 L156.639604,33.1042632 C156.668656,33.1042632 156.690446,33.0808596 156.690446,33.0558421 L156.690446,26.9265439 C156.690446,24.0543684 156.119077,20.7746491 151.668375,20.7746491" id="Fill-21" fill="#FFFFFF"></path>
                <path d="M141.307884,30.5280211 C140.868867,31.2478807 140.16434,31.3471439 139.537288,31.3471439 C138.911849,31.3471439 138.211358,31.2478807 137.765884,30.5280211 C137.365604,29.8751439 137.179989,28.7364421 137.179989,26.9424421 L137.179989,26.9279158 C137.179989,24.8054596 137.439042,23.6005825 138.028165,23.0235649 C138.372761,22.6846175 138.825498,22.5409684 139.537288,22.5409684 C140.249077,22.5409684 140.701007,22.6846175 141.049639,23.0235649 C141.633112,23.6005825 141.897814,24.8086877 141.897814,26.9424421 C141.897814,28.7364421 141.710586,29.8767579 141.307884,30.5280211 M139.537288,20.7736 C134.878375,20.7736 134.279568,24.0710737 134.279568,26.9424421 C134.279568,29.8162316 134.878375,33.1137053 139.536481,33.1137053 C144.197007,33.1137053 144.7942,29.8162316 144.7942,26.9424421 C144.7942,24.0710737 144.197007,20.7736 139.537288,20.7736" id="Fill-23" fill="#FFFFFF"></path>
                <path d="M78.1253509,20.7746491 C78.0987193,20.7746491 78.083386,20.7948246 78.0914561,20.8206491 L82.226614,32.9428596 C82.2346842,32.9694912 82.2346842,33.0122632 82.223386,33.0364737 L79.8999825,39.0479474 C79.8894912,39.0721579 79.9048246,39.0947544 79.9314561,39.0947544 L82.3557368,39.0947544 C82.3839825,39.0947544 82.4154561,39.0721579 82.4251404,39.0479474 L89.6971754,20.8206491 C89.7060526,20.7948246 89.6939474,20.7746491 89.6632807,20.7746491 L87.0178772,20.7746491 C86.9896316,20.7746491 86.9589649,20.7948246 86.9476667,20.8206491 L83.8680877,28.7867193 C83.8567895,28.8141579 83.8430702,28.8133509 83.8325789,28.7867193 L81.121,20.8206491 C81.1113158,20.7948246 81.0822632,20.7738421 81.0532105,20.7738421 L78.1253509,20.7746491 Z" id="Fill-25" fill="#FFFFFF"></path>
                <path d="M172.548421,18.9643474 C171.413754,18.5108035 170.187895,18.2824175 168.984632,18.2824175 C167.442421,18.2824175 165.716211,18.8723474 165.716211,20.7575404 C165.716211,22.2093649 166.578105,23.0042772 169.098421,23.9807684 C172.16186,25.1614351 173.751684,26.3864877 173.751684,28.9059965 C173.751684,32.1058211 170.982807,33.3776807 168.303509,33.3776807 C166.873474,33.3776807 165.035088,33.0597158 163.514667,32.377786 L164.014211,30.676593 C165.490246,31.4029088 167.077649,31.7208737 168.349509,31.7208737 C170.300877,31.7208737 171.776912,30.8573649 171.776912,29.0423825 C171.776912,27.3855754 170.34607,26.5454702 167.895965,25.5463825 C165.125474,24.4351193 163.742246,23.0494702 163.742246,20.8939263 C163.742246,17.8974702 166.555509,16.6264175 169.008035,16.6264175 C170.43807,16.6264175 171.868105,16.8531895 173.024561,17.3075404 L172.548421,18.9643474 Z" id="Fill-27" fill="#FFFFFF"></path>
                <path d="M174.317726,21.1201333 L176.450674,21.1201333 L176.450674,18.1018877 L178.380253,18.1018877 L178.380253,21.1201333 L181.14913,21.1201333 L181.14913,22.6421684 L178.380253,22.6421684 L178.380253,29.8141333 C178.380253,31.4475368 178.539235,31.7429053 179.900674,31.7429053 C180.423621,31.7429053 180.762568,31.6977123 181.171726,31.6525193 L181.171726,33.1051509 C180.739972,33.1729404 179.990253,33.2641333 179.355937,33.2641333 C176.859025,33.2641333 176.450674,32.0600632 176.450674,29.9271158 L176.450674,22.6421684 L174.317726,22.6421684 L174.317726,21.1201333 Z" id="Fill-29" fill="#FFFFFF"></path>
                <path d="M187.389796,22.3689123 C184.892884,22.3689123 183.758218,24.3210877 183.758218,27.0883509 C183.758218,29.8822456 184.938077,31.8570175 187.389796,31.8570175 C189.887516,31.8570175 191.022182,29.8822456 191.022182,27.0883509 C191.022182,24.3210877 189.887516,22.3689123 187.389796,22.3689123 M187.389796,33.3774386 C183.9632,33.3774386 181.828639,30.9935088 181.828639,27.0883509 C181.828639,23.1864211 183.9632,20.8476842 187.389796,20.8476842 C190.8172,20.8476842 192.950147,23.1864211 192.950147,27.0883509 C192.950147,30.9935088 190.8172,33.3774386 187.389796,33.3774386" id="Fill-31" fill="#FFFFFF"></path>
                <path d="M200.304095,22.4369439 C200.030516,22.3909439 199.690761,22.3691544 199.305814,22.3691544 C197.715989,22.3691544 196.444937,23.3004526 196.444937,26.0919263 L196.444937,33.1041018 L194.516165,33.1041018 L194.516165,21.1198912 L196.375533,21.1198912 L196.375533,22.7323123 L196.399744,22.7323123 C196.990481,21.4612596 197.987954,20.8471193 199.530972,20.8471193 C199.735954,20.8471193 200.053112,20.8471193 200.394481,20.8939263 L200.304095,22.4369439 Z" id="Fill-33" fill="#FFFFFF"></path>
                <path d="M202.164028,26.1142 L208.926835,26.1142 L208.926835,26.023007 C208.926835,23.7310772 207.635607,22.3688316 205.727011,22.3688316 C203.571467,22.3688316 202.368204,23.9126561 202.164028,26.1142 L202.164028,26.1142 Z M202.164028,27.6354281 C202.300414,30.1993228 203.866028,31.8569368 206.408133,31.8569368 C207.521818,31.8569368 208.700063,31.6527614 209.632168,31.267007 L209.949326,32.7422351 C208.950239,33.1731825 207.611396,33.3773579 206.363747,33.3773579 C202.3908,33.3773579 200.303046,30.6988667 200.303046,27.1358842 C200.303046,23.5043053 202.368204,20.8476035 205.704414,20.8476035 C209.063221,20.8476035 210.674028,23.1621298 210.674028,26.7041298 L210.674028,27.6354281 L202.164028,27.6354281 Z" id="Fill-35" fill="#FFFFFF"></path>
                <polygon id="Fill-37" fill="#FFFFFF" points="158.620347 31.1797684 157.904523 31.1797684 157.904523 30.9336281 159.613786 30.9336281 159.613786 31.1797684 158.903611 31.1797684 158.903611 33.1069263 158.620347 33.1069263"></polygon>
                <polygon id="Fill-39" fill="#FFFFFF" points="160.769758 33.1066842 160.174179 31.3401228 160.174179 33.1066842 159.890109 33.1066842 159.890109 30.933386 160.285547 30.933386 160.911793 32.7846842 161.54046 30.933386 161.933477 30.933386 161.933477 33.1066842 161.650214 33.1066842 161.650214 31.3401228 161.055442 33.1066842"></polygon>
            </g>
        </g>
    </g>
</svg>